<svg xmlns="http://www.w3.org/2000/svg" version="1.1" xmlns:xlink="http://www.w3.org/1999/xlink" xmlns:svgjs="http://svgjs.dev/svgjs" width="1000" height="1000" viewBox="0 0 1000 1000"><rect width="1000" height="1000" fill="#ffffff"></rect><g transform="matrix(0.7,0,0,0.7,149.57575757575756,282.1265587044535)"><svg viewBox="0 0 396 247" data-background-color="#ffffff" preserveAspectRatio="xMidYMid meet" height="623" width="1000" xmlns="http://www.w3.org/2000/svg" xmlns:xlink="http://www.w3.org/1999/xlink"><g id="tight-bounds" transform="matrix(1,0,0,1,0.2400000000000091,-0.09999999999999432)"><svg viewBox="0 0 395.52 247.2" height="247.2" width="395.52"><g><svg></svg></g><g><svg viewBox="0 0 395.52 247.2" height="247.2" width="395.52"><mask id="e8d9b6f8-ca3d-4ee6-9e1a-237370c10fe0"><rect width="640" height="400" fill="white"></rect><g transform="matrix(1,0,0,1,39.55199999999999,98.37584006035458)"><svg viewBox="0 0 316.416 50.44831987929084" height="50.44831987929084" width="316.416"><g><svg viewBox="0 0 316.416 50.44831987929084" height="50.44831987929084" width="316.416"><g><svg viewBox="0 0 316.416 50.44831987929084" height="50.44831987929084" width="316.416"><g><svg viewBox="0 0 316.416 50.44831987929084" height="50.44831987929084" width="316.416"><g id="SvgjsG1114"><svg viewBox="0 0 316.416 50.44831987929084" height="50.44831987929084" width="316.416" id="SvgjsSvg1113"><g><svg viewBox="0 0 316.416 50.44831987929084" height="50.44831987929084" width="316.416"><g transform="matrix(1,0,0,1,0,0)"><svg width="316.416" viewBox="-3.099999964237213 -44.599998474121094 398.6000061035156 64.39999771118164" height="50.44831987929084" data-palette-color="#a437db"><path d="M21.55-17.9L21.55-17.9Q21.55-21.35 18.3-21.35L18.3-21.35Q17.85-21.35 17.2-21.28 16.55-21.2 16.3-21.6L16.3-21.6Q15.9-22.15 17.6-22.35L17.6-22.35Q18.2-22.45 18.8-22.45L18.8-22.45Q21.7-22.45 22.75-19.95L22.75-19.95Q23.2-18.9 23.2-17.28 23.2-15.65 21.8-13.2L21.8-13.2Q19.35-8.75 14.1-6.55L14.1-6.55Q12.35-5.8 10.48-5.8 8.6-5.8 6.6-6.75L6.6-6.75Q2.9-8.5 1.45-12.6L1.45-12.6Q0.9-14.2 0.9-16.63 0.9-19.05 2.25-22.75L2.25-22.75Q5.35-30 12.45-35.1L12.45-35.1Q20.05-40.6 26.65-40.6L26.65-40.6Q32.25-40.6 34.15-36.1L34.15-36.1Q35-34.15 35-31.4L35-31.4Q35-30.5 34.9-29.55L34.9-29.55Q34.4-25.2 32.3-19.6L32.3-19.6Q31.95-18.65 31.95-18.32 31.95-18 32.1-18L32.1-18Q32.35-17.95 32.95-19.05L32.95-19.05Q36.65-25.8 41.1-31.15L41.1-31.15Q42.55-32.9 44.6-34L44.6-34Q46.85-35.2 48.63-35.2 50.4-35.2 51.43-33.9 52.45-32.6 52.45-30.45L52.45-30.45Q52.45-25.4 48.5-13.6L48.5-13.6Q47.7-11.25 47.5-10.6L47.5-10.6Q51.55-16.95 57.68-24.58 63.8-32.2 68.55-33.6L68.55-33.6Q69.4-33.85 70.05-33.85L70.05-33.85Q71.95-33.85 72.5-31.95L72.5-31.95Q72.7-31.3 72.7-30.45L72.7-30.45Q72.7-27.9 70.7-23.9L70.7-23.9Q66.6-15.7 65.1-10.85L65.1-10.85Q63.05-4.45 63.05-2.1 63.05 0.25 63.5 1.8L63.5 1.8Q64.4 4.9 68.25 4.9L68.25 4.9Q68.45 4.9 69.08 4.88 69.7 4.85 69.78 5.1 69.85 5.35 69.42 5.55 69 5.75 68.58 5.75 68.15 5.75 67.9 5.7L67.9 5.7Q60 4.9 60-2.4L60-2.4Q60-5.05 61.08-8.43 62.15-11.8 62.9-13.6L62.9-13.6Q64.1-16.5 67.95-24.95L67.95-24.95Q69.3-28.1 69.3-29.75 69.3-31.4 67.9-31.4L67.9-31.4Q65.95-31.4 61.85-27.4L61.85-27.4Q59.75-25.3 57.3-22.28 54.85-19.25 50.05-11.68 45.25-4.1 43.95-1L43.95-1Q42.8 1.7 40.9 1.7L40.9 1.7Q39.55 1.7 39.3 0.75L39.3 0.75Q39.15 0.35 39.3 0.13 39.45-0.1 40.25-1.55 41.05-3 41.9-4.6 42.75-6.2 43.93-8.95 45.1-11.7 46.1-14.55L46.1-14.55Q48.5-21.6 49.35-29.05L49.35-29.05Q49.45-29.9 49.45-31.18 49.45-32.45 48.78-33.2 48.1-33.95 47.35-33.95L47.35-33.95Q44.9-33.95 41.95-30.25L41.95-30.25Q37.95-25.3 35-20.53 32.05-15.75 30.48-12.5 28.9-9.25 26.83-4.67 24.75-0.1 24.63 0.2 24.5 0.5 24.28 0.95 24.05 1.4 23.9 1.8L23.9 1.8Q23.25 3.25 21.1 3.25L21.1 3.25Q19.85 3.25 19.75 2.45L19.75 2.45Q19.75 2.3 19.8 2.1L19.8 2.1Q23.1-3 27.1-13.35L27.1-13.35Q32.2-26.45 32.2-32.45L32.2-32.45Q32.2-39.6 26.3-39.6L26.3-39.6Q22.5-39.6 16.73-35.95 10.95-32.3 7.15-26.6L7.15-26.6Q5.65-24.35 4.9-22.25L4.9-22.25Q3.6-18.4 3.6-16.15L3.6-16.15Q3.6-9.7 7.9-7.65L7.9-7.65Q9.4-6.9 10.95-6.9L10.95-6.9Q16.35-6.9 19.8-12.75L19.8-12.75Q21.55-15.7 21.55-17.9ZM76.15-19.45Q75.45-18.85 74.6-18.85 73.75-18.85 73.25-19.45 72.75-20.05 72.85-20.9L72.85-20.9Q73-21.75 73.7-22.35 74.4-22.95 75.25-22.95 76.1-22.95 76.62-22.35 77.15-21.75 77-20.9 76.85-20.05 76.15-19.45ZM71.25-1.1L71.25-1.1Q72.2-1.1 73.25-2.05L73.25-2.05Q75.1-3.9 77.95-9.6L77.95-9.6Q78.3-10.35 78.65-10.05L78.65-10.05Q78.75-9.95 78.75-9.73 78.75-9.5 78.35-8.63 77.95-7.75 77.62-7.05 77.3-6.35 76.37-4.78 75.45-3.2 74.7-2.35L74.7-2.35Q72.65 0 70.82 0 69 0 68.2-1.1 67.4-2.2 67.4-3.55 67.4-4.9 68.05-6.5L68.05-6.5 71.25-14.65Q71.35-14.95 71.35-15.45 71.35-15.95 70.75-16.75L70.75-16.75 73.5-16.8Q74.65-16.8 74.85-16.38 75.05-15.95 74.55-15.05L74.55-15.05 70.55-5.7Q69.7-3.85 69.7-2.55L69.7-2.55Q69.7-1.1 71.25-1.1ZM87.2-11.5L87.2-11.5Q88.95-13.6 88.95-15.05 88.95-16.5 87.75-16.5L87.75-16.5Q85.4-16.5 82.4-12.2L82.4-12.2Q81.45-10.85 80.55-8.65 79.65-6.45 79.65-4.67 79.65-2.9 80.37-1.8 81.1-0.7 82.62-0.7 84.15-0.7 85.45-1.43 86.75-2.15 87.92-3.73 89.1-5.3 89.7-6.35 90.3-7.4 91.35-9.5L91.35-9.5Q91.7-10.2 91.95-10.08 92.2-9.95 92.2-9.73 92.2-9.5 91.52-8.08 90.85-6.65 90.17-5.4 89.5-4.15 88.25-2.6L88.25-2.6Q86 0.2 82.1 0.2L82.1 0.2Q79.3 0.2 78.07-1.18 76.85-2.55 76.85-4.35L76.85-4.35Q76.85-6.55 77.92-9.15 79-11.75 80.4-13.65L80.4-13.65Q83.3-17.6 87.1-17.6L87.1-17.6Q88.95-17.6 89.77-16.73 90.6-15.85 90.6-14.7L90.6-14.7Q90.6-13 89.2-11.8L89.2-11.8Q88.5-11.15 88.02-11.15 87.55-11.15 87.2-11.5ZM99.89-2.25L99.89-2.25Q99.89-0.85 100.89-0.85L100.89-0.85Q103.24-0.85 107.54-9.65L107.54-9.65Q107.89-10.35 108.17-10.2 108.44-10.05 108.44-9.8 108.44-9.55 107.87-8.38 107.29-7.2 106.72-6.13 106.14-5.05 105.04-3.3L105.04-3.3Q102.74 0.2 100.14 0.2L100.14 0.2Q98.44 0.2 97.44-1.2L97.44-1.2Q96.99-1.85 96.99-2.98 96.99-4.1 97.49-5.7 97.99-7.3 100.24-10.9L100.24-10.9Q100.79-11.8 100.79-12.33 100.79-12.85 99.94-12.85 99.09-12.85 96.69-10.6L96.69-10.6Q93.09-7.3 89.69-0.7L89.69-0.7Q89.34 0.05 87.84 0.05L87.84 0.05Q86.49 0.15 86.14 0.35L86.14 0.35Q95.64-19.4 99.89-27.2L99.89-27.2Q100.84-28.95 101.57-29.65 102.29-30.35 103.29-30.35L103.29-30.35Q103.54-30.35 104.34-30.23 105.14-30.1 105.54-30.15L105.54-30.15Q104.04-28.6 100.17-21.58 96.29-14.55 92.74-7.3L92.74-7.3Q95.09-10.25 96.97-11.9 98.84-13.55 101.54-15.03 104.24-16.5 105.49-16.5L105.49-16.5Q105.79-16.5 106.04-16.4L106.04-16.4Q99.89-5.6 99.89-2.25ZM109.79-7.7L109.79-7.7Q109.09-6 109.09-3.9L109.09-3.9Q109.09-2.5 109.72-1.68 110.34-0.85 111.49-0.85L111.49-0.85Q116.04-0.85 119.74-9.4L119.74-9.4Q120.09-10.2 120.59-10.1L120.59-10.1Q120.79-10.05 120.79-9.85 120.79-9.65 119.67-7.23 118.54-4.8 117.39-3.3L117.39-3.3Q114.84 0.2 111.09 0.2L111.09 0.2Q109.09 0.2 107.69-1.1 106.29-2.4 106.29-4.65 106.29-6.9 107.37-9.43 108.44-11.95 110.29-14.13 112.14-16.3 114.54-17.3L114.54-17.3Q115.69-17.8 116.74-17.8 117.79-17.8 118.69-17.2L118.69-17.2Q119.54-16.5 119.54-15.65L119.54-15.65Q119.54-12.65 115.94-9.9L115.94-9.9Q114.84-9.05 112.84-8.38 110.84-7.7 109.79-7.7ZM118.19-15.7L118.19-15.7Q118.19-16.7 117.39-16.7L117.39-16.7Q115.99-16.7 113.14-13.25L113.14-13.25Q111.44-11.15 110.14-8.55L110.14-8.55Q110.99-8.55 112.62-9.15 114.24-9.75 115.44-10.75L115.44-10.75Q118.19-13.1 118.19-15.7ZM122.64-9.65Q122.59-9.45 122.19-8.28 121.79-7.1 121.51-6.03 121.24-4.95 121.24-3.88 121.24-2.8 121.74-1.88 122.24-0.95 123.34-0.95L123.34-0.95Q125.14-0.95 126.84-3.38 128.54-5.8 130.44-9.55L130.44-9.55Q130.84-10.25 131.19-10.1L131.19-10.1Q131.44-9.9 131.29-9.58 131.14-9.25 130.66-8.18 130.19-7.1 129.96-6.68 129.74-6.25 129.16-5.18 128.59-4.1 128.16-3.58 127.74-3.05 127.01-2.23 126.29-1.4 125.64-1L125.64-1Q123.89 0.1 122.34 0.1 120.79 0.1 119.94-0.58 119.09-1.25 118.91-2.02 118.74-2.8 118.74-3.4 118.74-4 118.79-4.95L118.79-4.95Q118.94-6.55 119.41-8.05 119.89-9.55 119.94-9.75L119.94-9.75Q121.09-13.9 123.21-18.8 125.34-23.7 126.81-26.18 128.29-28.65 129.14-29.55L129.14-29.55Q130.84-31.35 132.49-31.35L132.49-31.35Q133.64-31.35 134.04-29.7L134.04-29.7Q134.09-29.4 134.09-28.95L134.09-28.95Q134.09-27.25 132.89-24.65L132.89-24.65Q128.59-15.1 122.64-9.65L122.64-9.65ZM123.04-11.25Q125.59-13.85 128.09-17.8 130.59-21.75 131.76-24.53 132.94-27.3 132.94-28.3 132.94-29.3 132.59-29.3L132.59-29.3Q132.09-29.3 130.69-27.33 129.29-25.35 126.91-20.23 124.54-15.1 123.04-11.25L123.04-11.25ZM131.49-19.5L131.49-19.5Q131.49-19.8 131.89-19.95L131.89-19.95Q133.39-20.5 134.46-21.6 135.54-22.7 135.74-24.3L135.74-24.3Q134.99-23.8 134.21-23.8 133.44-23.8 132.99-24.35 132.54-24.9 132.54-25.3 132.54-25.7 132.64-26.23 132.74-26.75 133.44-27.35 134.14-27.95 135.06-27.95 135.99-27.95 136.51-27.13 137.04-26.3 137.04-25.2L137.04-25.2Q137.04-23 135.51-21.53 133.99-20.05 132.04-19.4L132.04-19.4Q131.89-19.35 131.69-19.35 131.49-19.35 131.49-19.5ZM142.63-0.95L142.63-0.95Q143.28-0.85 143.53-0.85L143.53-0.85Q145.53-0.85 147.48-3.2L147.48-3.2Q148.53-4.5 151.23-9.75L151.23-9.75Q151.33-10 151.58-10L151.58-10Q152.03-10.05 152.03-9.65L152.03-9.65Q152.03-9.55 151.81-9.08 151.58-8.6 151.38-8.13 151.18-7.65 150.73-6.75 150.28-5.85 149.96-5.3 149.63-4.75 149.13-3.95 148.63-3.15 148.13-2.7L148.13-2.7 147.08-1.6Q146.23-0.75 145.08-0.4L145.08-0.4Q143.23 0.2 141.48-0.3L141.48-0.3Q140.33 0.2 139.43 0.2L139.43 0.2Q135.88 0.2 135.13-2.6L135.13-2.6Q134.98-3.25 134.98-4.17 134.98-5.1 135.61-5.95 136.23-6.8 136.93-6.85L136.93-6.85Q139.48-11.7 141.28-15.6L141.28-15.6Q143.28-19.85 145.93-19.85L145.93-19.85Q146.63-19.85 147.31-19.53 147.98-19.2 147.81-18.8 147.63-18.4 147.08-18.65 146.53-18.9 146.13-18.9 145.73-18.9 145.43-18.75L145.43-18.75Q143.73-17.95 143.73-15.3L143.73-15.3Q143.73-13.9 144.13-13 144.53-12.1 145.03-11.05L145.03-11.05Q146.18-8.45 146.18-6.8L146.18-6.8Q146.18-5.15 145.13-3.55 144.08-1.95 142.63-0.95ZM140.93-1.3L140.93-1.3Q143.13-3 143.13-6.8L143.13-6.8Q143.13-8.35 142.78-11.05 142.43-13.75 142.43-14.7 142.43-15.65 142.48-16L142.48-16Q138.68-8.4 137.78-6.75L137.78-6.75Q138.83-6.75 138.83-5.25L138.83-5.25Q138.83-2.3 140.93-1.3ZM137.18-2.65L137.18-2.65Q137.18-2.35 137.23-2L137.23-2Q137.63-0.65 139.08-0.65L139.08-0.65Q139.68-0.65 140.08-0.85L140.08-0.85Q138.23-2 138.08-4.6L138.08-4.6Q137.18-3.7 137.18-2.65ZM209.48-35.25L209.48-35.25Q214.78-32.1 214.78-27.65L214.78-27.65Q214.78-24.15 210.88-20.15L210.88-20.15Q208.63-17.8 205.55-16.1 202.48-14.4 199.48-13.65L199.48-13.65Q194.28-12.4 190.08-12.4L190.08-12.4Q189.18-12.4 188.28-12.45L188.28-12.45Q184.63-7.1 180.78-3.35L180.78-3.35Q175.13 1.95 168.33 1.95L168.33 1.95Q161.83 1.95 160.33-1.6L160.33-1.6Q159.98-2.45 159.98-3.58 159.98-4.7 161.13-6L161.13-6Q162.93-8.05 166.18-8.05L166.18-8.05Q168.28-8.05 170.58-7.3L170.58-7.3Q171.43-7 171.18-6.65L171.18-6.65Q170.98-6.45 169.88-6.85 168.78-7.25 167.15-7.25 165.53-7.25 164.3-6.03 163.08-4.8 163.08-3.4L163.08-3.4Q163.08-2.85 163.28-2.3L163.28-2.3Q164.08 0.4 167.83 0.4L167.83 0.4Q173.43 0.4 178.83-4.8L178.83-4.8Q182.68-8.55 187.48-18.3L187.48-18.3Q189.33-21.95 192.08-26.43 194.83-30.9 197.68-34.1L197.68-34.1Q198.03-34.45 198.58-35L198.58-35Q199.63-36.2 200.33-36.9L200.33-36.9Q196.73-37.4 192.63-37.4 188.53-37.4 184.88-36.73 181.23-36.05 178.53-35.13 175.83-34.2 173.05-32.73 170.28-31.25 168.38-29L168.38-29Q165.88-26.15 165.88-23.05L165.88-23.05Q165.88-21.15 167.23-19.5L167.23-19.5Q168.68-17.75 170.95-17.75 173.23-17.75 175.35-19.5 177.48-21.25 178.38-23.8L178.38-23.8Q178.43-24.15 178.6-24.28 178.78-24.4 178.93-24.25 179.08-24.1 179.08-23.75L179.08-23.75Q179.03-20.5 176.55-18.63 174.08-16.75 171.08-16.75L171.08-16.75Q167.68-16.75 165.53-18.75 163.38-20.75 163.38-23.9L163.38-23.9Q163.38-26.8 164.93-29.13 166.48-31.45 168.63-32.9 170.78-34.35 173.58-35.5L173.58-35.5Q178.33-37.4 183.55-38.18 188.78-38.95 193.3-38.95 197.83-38.95 201.68-38.15L201.68-38.15Q203.48-39.55 204.83-40.05 206.18-40.55 206.35-40.55 206.53-40.55 206.58-40.5L206.58-40.5Q206.88-40.5 206.7-40.18 206.53-39.85 205.55-39.2 204.58-38.55 203.68-37.65L203.68-37.65Q206.88-36.8 209.48-35.25ZM189.68-13.5L189.68-13.5Q193.33-13.5 197.6-14.78 201.88-16.05 205.18-18.5L205.18-18.5Q211.58-23.35 211.58-28.5L211.58-28.5Q211.58-34.35 202.73-36.45L202.73-36.45Q199.93-32.55 195.48-24.6 191.03-16.65 188.98-13.5L188.98-13.5Q189.33-13.5 189.68-13.5ZM217.53-2.25L217.53-2.25Q217.53-0.85 218.53-0.85L218.53-0.85Q220.88-0.85 225.18-9.65L225.18-9.65Q225.53-10.35 225.8-10.2 226.08-10.05 226.08-9.8 226.08-9.55 225.5-8.38 224.93-7.2 224.35-6.13 223.78-5.05 222.68-3.3L222.68-3.3Q220.38 0.2 217.78 0.2L217.78 0.2Q216.08 0.2 215.08-1.2L215.08-1.2Q214.63-1.85 214.63-2.98 214.63-4.1 215.13-5.7 215.63-7.3 217.88-10.9L217.88-10.9Q218.43-11.8 218.43-12.33 218.43-12.85 217.58-12.85 216.73-12.85 214.33-10.6L214.33-10.6Q210.73-7.3 207.33-0.7L207.33-0.7Q206.98 0.05 205.48 0.05L205.48 0.05Q204.13 0.15 203.78 0.35L203.78 0.35Q213.28-19.4 217.53-27.2L217.53-27.2Q218.48-28.95 219.2-29.65 219.93-30.35 220.93-30.35L220.93-30.35Q221.18-30.35 221.98-30.23 222.78-30.1 223.18-30.15L223.18-30.15Q221.68-28.6 217.8-21.58 213.93-14.55 210.38-7.3L210.38-7.3Q212.73-10.25 214.6-11.9 216.48-13.55 219.18-15.03 221.88-16.5 223.13-16.5L223.13-16.5Q223.43-16.5 223.68-16.4L223.68-16.4Q217.53-5.6 217.53-2.25ZM218.27 15.8L218.27 15.8Q216.07 15.8 214.87 14.88 213.67 13.95 213.67 12.65 213.67 11.35 214.42 9.7L214.42 9.7Q215.72 7.15 219.12 5.6L219.12 5.6Q221.67 4.4 225.87 3.38 230.07 2.35 231.27 2L231.27 2Q233.07-1.15 235.57-9.25L235.57-9.25Q232.67-4.15 230.72-2.1 228.77-0.05 226.77-0.05L226.77-0.05Q224.07-0.05 223.62-2.3L223.62-2.3Q223.42-2.65 223.52-3.35 223.62-4.05 223.65-4.35 223.67-4.65 223.97-5.33 224.27-6 224.37-6.3L224.37-6.3Q224.92-7.45 225.32-8.1L225.32-8.1Q224.52-8.1 224.87-8.9L224.87-8.9 225.77-10.65Q227.47-13.9 228.57-16.15L228.57-16.15Q229.07-17.2 230.52-17.2L230.52-17.2 233.57-17.2Q233.47-17.1 233.07-16.8L233.07-16.8Q232.17-16.2 231.72-15.4L231.72-15.4Q229.92-12.3 227.22-6.55L227.22-6.55Q226.12-4.2 226.12-3.1 226.12-2 226.5-1.55 226.87-1.1 227.52-1.1L227.52-1.1Q228.47-1.1 230.17-3.1L230.17-3.1Q233.72-7.25 238.02-16.15L238.02-16.15Q238.57-17.2 239.97-17.2L239.97-17.2 242.67-17.2Q241.37-16.3 240.62-14.93 239.87-13.55 239-11.2 238.12-8.85 236.8-4.95 235.47-1.05 234.77 0.9L234.77 0.9Q239.47-0.5 241.97-4.05L241.97-4.05Q243.07-5.6 245.12-9.55L245.12-9.55Q245.47-10.25 245.75-10.1 246.02-9.95 246.02-9.7 246.02-9.45 245.2-7.78 244.37-6.1 243.52-4.67 242.67-3.25 241.32-1.75 239.97-0.25 238.32 0.63 236.67 1.5 233.92 2.5L233.92 2.5Q230.07 9.5 226.17 12.8L226.17 12.8Q222.52 15.8 218.27 15.8ZM215.37 10.85L215.37 10.85Q214.82 11.95 214.82 12.88 214.82 13.8 215.52 14.3 216.22 14.8 217.27 14.8L217.27 14.8Q220.17 14.8 223.47 11.83 226.77 8.85 229.27 5.45L229.27 5.45 230.37 3.6Q222.12 5.75 219.97 6.7L219.97 6.7Q216.77 8.1 215.37 10.85ZM249.42-0.95L249.42-0.95Q250.07-0.85 250.32-0.85L250.32-0.85Q252.32-0.85 254.27-3.2L254.27-3.2Q255.32-4.5 258.02-9.75L258.02-9.75Q258.12-10 258.37-10L258.37-10Q258.82-10.05 258.82-9.65L258.82-9.65Q258.82-9.55 258.6-9.08 258.37-8.6 258.17-8.13 257.97-7.65 257.52-6.75 257.07-5.85 256.75-5.3 256.42-4.75 255.92-3.95 255.42-3.15 254.92-2.7L254.92-2.7 253.87-1.6Q253.02-0.75 251.87-0.4L251.87-0.4Q250.02 0.2 248.27-0.3L248.27-0.3Q247.12 0.2 246.22 0.2L246.22 0.2Q242.67 0.2 241.92-2.6L241.92-2.6Q241.77-3.25 241.77-4.17 241.77-5.1 242.4-5.95 243.02-6.8 243.72-6.85L243.72-6.85Q246.27-11.7 248.07-15.6L248.07-15.6Q250.07-19.85 252.72-19.85L252.72-19.85Q253.42-19.85 254.1-19.53 254.77-19.2 254.6-18.8 254.42-18.4 253.87-18.65 253.32-18.9 252.92-18.9 252.52-18.9 252.22-18.75L252.22-18.75Q250.52-17.95 250.52-15.3L250.52-15.3Q250.52-13.9 250.92-13 251.32-12.1 251.82-11.05L251.82-11.05Q252.97-8.45 252.97-6.8L252.97-6.8Q252.97-5.15 251.92-3.55 250.87-1.95 249.42-0.95ZM247.72-1.3L247.72-1.3Q249.92-3 249.92-6.8L249.92-6.8Q249.92-8.35 249.57-11.05 249.22-13.75 249.22-14.7 249.22-15.65 249.27-16L249.27-16Q245.47-8.4 244.57-6.75L244.57-6.75Q245.62-6.75 245.62-5.25L245.62-5.25Q245.62-2.3 247.72-1.3ZM243.97-2.65L243.97-2.65Q243.97-2.35 244.02-2L244.02-2Q244.42-0.65 245.87-0.65L245.87-0.65Q246.47-0.65 246.87-0.85L246.87-0.85Q245.02-2 244.87-4.6L244.87-4.6Q243.97-3.7 243.97-2.65ZM264.82-19.45Q264.12-18.85 263.27-18.85 262.42-18.85 261.92-19.45 261.42-20.05 261.52-20.9L261.52-20.9Q261.67-21.75 262.37-22.35 263.07-22.95 263.92-22.95 264.77-22.95 265.29-22.35 265.82-21.75 265.67-20.9 265.52-20.05 264.82-19.45ZM259.92-1.1L259.92-1.1Q260.87-1.1 261.92-2.05L261.92-2.05Q263.77-3.9 266.62-9.6L266.62-9.6Q266.97-10.35 267.32-10.05L267.32-10.05Q267.42-9.95 267.42-9.73 267.42-9.5 267.02-8.63 266.62-7.75 266.29-7.05 265.97-6.35 265.04-4.78 264.12-3.2 263.37-2.35L263.37-2.35Q261.32 0 259.49 0 257.67 0 256.87-1.1 256.07-2.2 256.07-3.55 256.07-4.9 256.72-6.5L256.72-6.5 259.92-14.65Q260.02-14.95 260.02-15.45 260.02-15.95 259.42-16.75L259.42-16.75 262.17-16.8Q263.32-16.8 263.52-16.38 263.72-15.95 263.22-15.05L263.22-15.05 259.22-5.7Q258.37-3.85 258.37-2.55L258.37-2.55Q258.37-1.1 259.92-1.1ZM275.77-17.5L275.77-17.5Q279.42-17.5 279.42-12.9L279.42-12.9Q279.42-10.8 278.32-8.4L278.32-8.4Q276.92-5.15 274.12-2.5L274.12-2.5Q274.77-1.25 276.47-1.25L276.47-1.25Q277.82-1.25 279.02-2.6L279.02-2.6Q280.52-4.15 281.17-5.33 281.82-6.5 282.12-7.05 282.42-7.6 282.89-8.63 283.37-9.65 283.47-9.88 283.57-10.1 283.82-10.1L283.82-10.1Q284.32-10.15 284.32-9.75L284.32-9.75Q284.32-9.6 284.22-9.4L284.22-9.4 283.92-8.7Q283.62-8 283.47-7.7 283.32-7.4 282.94-6.63 282.57-5.85 282.29-5.4 282.02-4.95 281.54-4.2 281.07-3.45 280.69-3 280.32-2.55 279.77-2 279.22-1.45 278.72-1.15L278.72-1.15Q277.47-0.4 276.37-0.4L276.37-0.4Q274.32-0.4 273.17-1.7L273.17-1.7Q270.87 0 268.92 0L268.92 0Q265.27 0 265.27-4.6L265.27-4.6Q265.27-6.7 266.37-9.1L266.37-9.1Q267.87-12.6 270.59-15.05 273.32-17.5 275.77-17.5ZM276.32-15.95L276.32-15.95Q274.97-15.95 273.12-14.15 271.27-12.35 269.82-9.25L269.82-9.25Q268.07-5.65 268.07-3.35 268.07-1.05 269.82-1.05L269.82-1.05Q271.07-1.05 272.62-2.4L272.62-2.4Q271.82-3.55 271.82-4.85L271.82-4.85Q271.92-7 273.57-7L273.57-7Q274.22-7 274.64-6.55 275.07-6.1 275.07-5.73 275.07-5.35 274.97-4.95L274.97-4.95Q275.82-6.2 276.92-8.5L276.92-8.5Q278.17-11.05 278.17-13.5 278.17-15.95 276.32-15.95ZM282.16-4L282.16-4Q282.16-8.15 286.16-17.9L286.16-17.9 283.56-17.9Q283.31-17.9 283.24-18.18 283.16-18.45 283.29-18.73 283.41-19 283.66-19L283.66-19 286.66-19Q288.46-22.95 290.01-25.6 291.56-28.25 292.86-29.18 294.16-30.1 294.74-30.1 295.31-30.1 295.56-30L295.56-30Q296.71-29.45 296.71-27.73 296.71-26 295.56-23.55 294.41-21.1 293.31-19L293.31-19 295.71-19Q295.96-19 296.04-18.73 296.11-18.45 295.99-18.18 295.86-17.9 295.61-17.9L295.61-17.9 292.71-17.9Q289.96-13.25 286.06-9.65L286.06-9.65 284.91-4.55Q284.76-3.9 284.76-3.28 284.76-2.65 285.11-2 285.46-1.35 286.21-1.35L286.21-1.35Q287.06-1.35 288.11-1.95L288.11-1.95Q290.51-3.75 293.41-9.5L293.41-9.5Q293.61-9.95 293.89-10.05 294.16-10.15 294.21-9.93 294.26-9.7 294.06-9.2L294.06-9.2Q292.41-5.75 291.46-4.3L291.46-4.3Q288.76 0.05 285.71 0.05L285.71 0.05Q284.16 0.05 283.16-1.1 282.16-2.25 282.16-4ZM289.71-19L292.21-19Q295.51-24.9 295.51-27.2L295.51-27.2Q295.51-28.2 295.16-28.2L295.16-28.2Q294.61-28.2 293.49-26.6 292.36-25 289.71-19L289.71-19ZM291.56-17.9L291.56-17.9 289.21-17.9Q288.61-16.5 286.51-11.25L286.51-11.25Q289.21-14.05 291.56-17.9ZM302.31-2.25L302.31-2.25Q302.31-0.85 303.31-0.85L303.31-0.85Q305.66-0.85 309.96-9.65L309.96-9.65Q310.31-10.35 310.59-10.2 310.86-10.05 310.86-9.8 310.86-9.55 310.29-8.38 309.71-7.2 309.14-6.13 308.56-5.05 307.46-3.3L307.46-3.3Q305.16 0.2 302.56 0.2L302.56 0.2Q300.86 0.2 299.86-1.2L299.86-1.2Q299.41-1.85 299.41-2.98 299.41-4.1 299.91-5.7 300.41-7.3 302.66-10.9L302.66-10.9Q303.21-11.8 303.21-12.33 303.21-12.85 302.36-12.85 301.51-12.85 299.11-10.6L299.11-10.6Q295.51-7.3 292.11-0.7L292.11-0.7Q291.76 0.05 290.26 0.05L290.26 0.05Q288.91 0.15 288.56 0.35L288.56 0.35Q298.06-19.4 302.31-27.2L302.31-27.2Q303.26-28.95 303.99-29.65 304.71-30.35 305.71-30.35L305.71-30.35Q305.96-30.35 306.76-30.23 307.56-30.1 307.96-30.15L307.96-30.15Q306.46-28.6 302.59-21.58 298.71-14.55 295.16-7.3L295.16-7.3Q297.51-10.25 299.39-11.9 301.26-13.55 303.96-15.03 306.66-16.5 307.91-16.5L307.91-16.5Q308.21-16.5 308.46-16.4L308.46-16.4Q302.31-5.6 302.31-2.25ZM312.21-7.7L312.21-7.7Q311.51-6 311.51-3.9L311.51-3.9Q311.51-2.5 312.13-1.68 312.76-0.85 313.91-0.85L313.91-0.85Q318.46-0.85 322.16-9.4L322.16-9.4Q322.51-10.2 323.01-10.1L323.01-10.1Q323.21-10.05 323.21-9.85 323.21-9.65 322.08-7.23 320.96-4.8 319.81-3.3L319.81-3.3Q317.26 0.2 313.51 0.2L313.51 0.2Q311.51 0.2 310.11-1.1 308.71-2.4 308.71-4.65 308.71-6.9 309.78-9.43 310.86-11.95 312.71-14.13 314.56-16.3 316.96-17.3L316.96-17.3Q318.11-17.8 319.16-17.8 320.21-17.8 321.11-17.2L321.11-17.2Q321.96-16.5 321.96-15.65L321.96-15.65Q321.96-12.65 318.36-9.9L318.36-9.9Q317.26-9.05 315.26-8.38 313.26-7.7 312.21-7.7ZM320.61-15.7L320.61-15.7Q320.61-16.7 319.81-16.7L319.81-16.7Q318.41-16.7 315.56-13.25L315.56-13.25Q313.86-11.15 312.56-8.55L312.56-8.55Q313.41-8.55 315.03-9.15 316.66-9.75 317.86-10.75L317.86-10.75Q320.61-13.1 320.61-15.7ZM329.01-20.05L329.01-20.05Q329.01-17.8 326.16-15.8L326.16-15.8Q327.16-15.75 328.83-15.75 330.51-15.75 333.06-16L333.06-16Q333.16-15.85 333.16-15.2 333.16-14.55 332.56-13.28 331.96-12 331.48-11.08 331.01-10.15 330.58-9.33 330.16-8.5 329.63-7.3 329.11-6.1 328.76-5.1L328.76-5.1Q327.51-1.3 329.16-1.3L329.16-1.3Q331.26-1.3 335.36-9.65L335.36-9.65Q335.71-10.3 335.93-10.15 336.16-10 336.16-9.78 336.16-9.55 335.51-8.22 334.86-6.9 334.11-5.5 333.36-4.1 331.76-2.25L331.76-2.25Q329.86 0.05 328.11 0.05L328.11 0.05Q326.16 0.05 325.41-2.3L325.41-2.3Q325.26-2.75 325.26-3.65 325.26-4.55 325.83-6.05 326.41-7.55 327.66-9.7 328.91-11.85 329.06-12.23 329.21-12.6 329.21-12.95L329.21-12.95Q329.21-14.5 325.21-14.6L325.21-14.6 324.61-13Q321.46-4.75 318.56-1.95L318.56-1.95Q318.06-1.5 318.06-2.25L318.06-2.25Q318.06-2.4 318.16-2.6L318.16-2.6Q320.96-6.3 323.01-11.35 325.06-16.4 325.86-20.95L325.86-20.95Q326.16-22.5 327.26-22.5 328.36-22.5 328.86-21.1L328.86-21.1Q329.01-20.65 329.01-20.05ZM350.5-13.55Q349.6-12.65 347.95-9.47 346.3-6.3 345.98-4.73 345.65-3.15 345.65-2.18 345.65-1.2 346.4-1.2L346.4-1.2Q347.35-1.2 348.75-2.95L348.75-2.95Q350.8-5.5 352.8-9.6L352.8-9.6Q353-10.05 353.25-10.1L353.25-10.1Q353.65-10.25 353.65-9.8L353.65-9.8Q353.65-9.55 353.5-9.2L353.5-9.2Q348.9 0.1 345.75 0.1L345.75 0.1Q344.3 0.1 343.4-1.3L343.4-1.3Q342.95-2.05 342.95-3.3 342.95-4.55 343.45-6.35L343.45-6.35Q339.45 0.1 336.55 0.1L336.55 0.1Q335.75 0.1 335.1-0.4L335.1-0.4Q333.6-1.45 333.6-4L333.6-4Q333.6-8.9 337.85-13.95L337.85-13.95Q340.25-16.75 343.75-17.6L343.75-17.6Q344.7-17.85 345.55-17.85L345.55-17.85Q347.85-17.85 349.45-16.25L349.45-16.25Q349.95-15.7 349.75-15.2 349.55-14.7 348.9-14.8L348.9-14.8Q348.35-16.6 346.5-16.6L346.5-16.6Q344.35-16.6 341.2-13.2L341.2-13.2Q339.4-11.2 337.85-8.5L337.85-8.5Q335.9-5.25 335.9-3.3 335.9-1.35 337.15-1.35L337.15-1.35Q340.15-1.35 345-10.55L345-10.55Q345.95-12.4 346.6-13.08 347.25-13.75 348.25-13.75L348.25-13.75Q348.45-13.75 349.28-13.6 350.1-13.45 350.5-13.55L350.5-13.55ZM367.8-13.6L367.8-13.6Q367.8-11.4 366.65-8.75 365.5-6.1 363.48-3.65 361.45-1.2 358.55-0.3L358.55-0.3Q357.45 0 356.03 0 354.6 0 352.9-0.9L352.9-0.9 348.15 10.95Q347.4 12.55 346.75 13.05 346.1 13.55 345.5 13.55 344.9 13.55 344.78 13.55 344.65 13.55 343.88 13.4 343.1 13.25 342.7 13.3L342.7 13.3Q343.8 12.25 348.28 3.33 352.75-5.6 353.35-8.7L353.35-8.7Q352.8-7.9 352.3-7.85L352.3-7.85Q352-7.85 352.3-8.43 352.6-9 353.3-10.65L353.3-10.65Q354.2-12.8 354.2-14.63 354.2-16.45 353.5-16.75L353.5-16.75Q356.5-17.25 357-17.23 357.5-17.2 357.63-16.8 357.75-16.4 357.75-15.9L357.75-15.9Q357.75-12.85 356.35-9.1L356.35-9.1 357.35-10.7Q359.15-13.6 359.98-14.45 360.8-15.3 361.75-16.2L361.75-16.2Q363.2-17.6 364.55-17.6L364.55-17.6Q364.95-17.6 365.3-17.5L365.3-17.5Q367.8-16.85 367.8-13.6ZM365.4-14.1L365.4-14.1Q365.4-14.9 365.08-15.58 364.75-16.25 364.05-16.25L364.05-16.25Q362.3-16.25 359.98-13 357.65-9.75 353.3-1.65L353.3-1.65Q353.95-1 355.1-1 356.25-1 358.35-2.75L358.35-2.75Q361.7-5.55 363.95-9.7L363.95-9.7Q365.4-12.4 365.4-14.1ZM376.45-19.45Q375.75-18.85 374.9-18.85 374.05-18.85 373.55-19.45 373.05-20.05 373.15-20.9L373.15-20.9Q373.3-21.75 374-22.35 374.7-22.95 375.55-22.95 376.4-22.95 376.92-22.35 377.45-21.75 377.3-20.9 377.15-20.05 376.45-19.45ZM371.55-1.1L371.55-1.1Q372.5-1.1 373.55-2.05L373.55-2.05Q375.4-3.9 378.25-9.6L378.25-9.6Q378.6-10.35 378.95-10.05L378.95-10.05Q379.05-9.95 379.05-9.73 379.05-9.5 378.65-8.63 378.25-7.75 377.92-7.05 377.6-6.35 376.67-4.78 375.75-3.2 375-2.35L375-2.35Q372.95 0 371.12 0 369.3 0 368.5-1.1 367.7-2.2 367.7-3.55 367.7-4.9 368.35-6.5L368.35-6.5 371.55-14.65Q371.65-14.95 371.65-15.45 371.65-15.95 371.05-16.75L371.05-16.75 373.8-16.8Q374.95-16.8 375.15-16.38 375.35-15.95 374.85-15.05L374.85-15.05 370.85-5.7Q370-3.85 370-2.55L370-2.55Q370-1.1 371.55-1.1ZM380.5-7.7L380.5-7.7Q379.8-6 379.8-3.9L379.8-3.9Q379.8-2.5 380.42-1.68 381.05-0.85 382.2-0.85L382.2-0.85Q386.75-0.85 390.45-9.4L390.45-9.4Q390.8-10.2 391.3-10.1L391.3-10.1Q391.5-10.05 391.5-9.85 391.5-9.65 390.37-7.23 389.25-4.8 388.1-3.3L388.1-3.3Q385.55 0.2 381.8 0.2L381.8 0.2Q379.8 0.2 378.4-1.1 377-2.4 377-4.65 377-6.9 378.07-9.43 379.15-11.95 381-14.13 382.85-16.3 385.25-17.3L385.25-17.3Q386.4-17.8 387.45-17.8 388.5-17.8 389.4-17.2L389.4-17.2Q390.25-16.5 390.25-15.65L390.25-15.65Q390.25-12.65 386.65-9.9L386.65-9.9Q385.55-9.05 383.55-8.38 381.55-7.7 380.5-7.7ZM388.9-15.7L388.9-15.7Q388.9-16.7 388.1-16.7L388.1-16.7Q386.7-16.7 383.85-13.25L383.85-13.25Q382.15-11.15 380.85-8.55L380.85-8.55Q381.7-8.55 383.32-9.15 384.95-9.75 386.15-10.75L386.15-10.75Q388.9-13.1 388.9-15.7Z" opacity="1" transform="matrix(1,0,0,1,0,0)" fill="black" class="wordmark-text-0" id="SvgjsPath1112" stroke-width="7" stroke="black" stroke-linejoin="round"></path></svg></g></svg></g></svg></g></svg></g><g></g></svg></g></svg></g></svg></g></mask><g transform="matrix(1,0,0,1,39.55199999999999,98.37584006035458)"><svg viewBox="0 0 316.416 50.44831987929084" height="50.44831987929084" width="316.416"><g><svg viewBox="0 0 316.416 50.44831987929084" height="50.44831987929084" width="316.416"><g><svg viewBox="0 0 316.416 50.44831987929084" height="50.44831987929084" width="316.416"><g><svg viewBox="0 0 316.416 50.44831987929084" height="50.44831987929084" width="316.416"><g id="textblocktransform"><svg viewBox="0 0 316.416 50.44831987929084" height="50.44831987929084" width="316.416" id="textblock"><g><svg viewBox="0 0 316.416 50.44831987929084" height="50.44831987929084" width="316.416"><g transform="matrix(1,0,0,1,0,0)"><svg width="316.416" viewBox="-3.099999964237213 -44.599998474121094 398.6000061035156 64.39999771118164" height="50.44831987929084" data-palette-color="#a437db"><path d="M21.55-17.9L21.55-17.9Q21.55-21.35 18.3-21.35L18.3-21.35Q17.85-21.35 17.2-21.28 16.55-21.2 16.3-21.6L16.3-21.6Q15.9-22.15 17.6-22.35L17.6-22.35Q18.2-22.45 18.8-22.45L18.8-22.45Q21.7-22.45 22.75-19.95L22.75-19.95Q23.2-18.9 23.2-17.28 23.2-15.65 21.8-13.2L21.8-13.2Q19.35-8.75 14.1-6.55L14.1-6.55Q12.35-5.8 10.48-5.8 8.6-5.8 6.6-6.75L6.6-6.75Q2.9-8.5 1.45-12.6L1.45-12.6Q0.9-14.2 0.9-16.63 0.9-19.05 2.25-22.75L2.25-22.75Q5.35-30 12.45-35.1L12.45-35.1Q20.05-40.6 26.65-40.6L26.65-40.6Q32.25-40.6 34.15-36.1L34.15-36.1Q35-34.15 35-31.4L35-31.4Q35-30.5 34.9-29.55L34.9-29.55Q34.4-25.2 32.3-19.6L32.3-19.6Q31.95-18.65 31.95-18.32 31.95-18 32.1-18L32.1-18Q32.35-17.95 32.95-19.05L32.95-19.05Q36.65-25.8 41.1-31.15L41.1-31.15Q42.55-32.9 44.6-34L44.6-34Q46.85-35.2 48.63-35.2 50.4-35.2 51.43-33.9 52.45-32.6 52.45-30.45L52.45-30.45Q52.45-25.4 48.5-13.6L48.5-13.6Q47.7-11.25 47.5-10.6L47.5-10.6Q51.55-16.95 57.68-24.58 63.8-32.2 68.55-33.6L68.55-33.6Q69.4-33.85 70.05-33.85L70.05-33.85Q71.95-33.85 72.5-31.95L72.5-31.95Q72.7-31.3 72.7-30.45L72.7-30.45Q72.7-27.9 70.7-23.9L70.7-23.9Q66.6-15.7 65.1-10.85L65.1-10.85Q63.05-4.45 63.05-2.1 63.05 0.25 63.5 1.8L63.5 1.8Q64.4 4.9 68.25 4.9L68.25 4.9Q68.45 4.9 69.08 4.88 69.7 4.85 69.78 5.1 69.85 5.35 69.42 5.55 69 5.75 68.58 5.75 68.15 5.75 67.9 5.7L67.9 5.7Q60 4.9 60-2.4L60-2.4Q60-5.05 61.08-8.43 62.15-11.8 62.9-13.6L62.9-13.6Q64.1-16.5 67.95-24.95L67.95-24.95Q69.3-28.1 69.3-29.75 69.3-31.4 67.9-31.4L67.9-31.4Q65.95-31.4 61.85-27.4L61.85-27.4Q59.75-25.3 57.3-22.28 54.85-19.25 50.05-11.68 45.25-4.1 43.95-1L43.95-1Q42.8 1.7 40.9 1.7L40.9 1.7Q39.55 1.7 39.3 0.75L39.3 0.75Q39.15 0.35 39.3 0.13 39.45-0.1 40.25-1.55 41.05-3 41.9-4.6 42.75-6.2 43.93-8.95 45.1-11.7 46.1-14.55L46.1-14.55Q48.5-21.6 49.35-29.05L49.35-29.05Q49.45-29.9 49.45-31.18 49.45-32.45 48.78-33.2 48.1-33.95 47.35-33.95L47.35-33.95Q44.9-33.95 41.95-30.25L41.95-30.25Q37.95-25.3 35-20.53 32.05-15.75 30.48-12.5 28.9-9.25 26.83-4.67 24.75-0.1 24.63 0.2 24.5 0.5 24.28 0.95 24.05 1.4 23.9 1.8L23.9 1.8Q23.25 3.25 21.1 3.25L21.1 3.25Q19.85 3.25 19.75 2.45L19.75 2.45Q19.75 2.3 19.8 2.1L19.8 2.1Q23.1-3 27.1-13.35L27.1-13.35Q32.2-26.45 32.2-32.45L32.2-32.45Q32.2-39.6 26.3-39.6L26.3-39.6Q22.5-39.6 16.73-35.95 10.95-32.3 7.15-26.6L7.15-26.6Q5.65-24.35 4.9-22.25L4.9-22.25Q3.6-18.4 3.6-16.15L3.6-16.15Q3.6-9.7 7.9-7.65L7.9-7.65Q9.4-6.9 10.95-6.9L10.95-6.9Q16.35-6.9 19.8-12.75L19.8-12.75Q21.55-15.7 21.55-17.9ZM76.15-19.45Q75.45-18.85 74.6-18.85 73.75-18.85 73.25-19.45 72.75-20.05 72.85-20.9L72.85-20.9Q73-21.75 73.7-22.35 74.4-22.95 75.25-22.95 76.1-22.95 76.62-22.35 77.15-21.75 77-20.9 76.85-20.05 76.15-19.45ZM71.25-1.1L71.25-1.1Q72.2-1.1 73.25-2.05L73.25-2.05Q75.1-3.9 77.95-9.6L77.95-9.6Q78.3-10.35 78.65-10.05L78.65-10.05Q78.75-9.95 78.75-9.73 78.75-9.5 78.35-8.63 77.95-7.75 77.62-7.05 77.3-6.35 76.37-4.78 75.45-3.2 74.7-2.35L74.7-2.35Q72.65 0 70.82 0 69 0 68.2-1.1 67.4-2.2 67.4-3.55 67.4-4.9 68.05-6.5L68.05-6.5 71.25-14.65Q71.35-14.95 71.35-15.45 71.35-15.95 70.75-16.75L70.75-16.75 73.5-16.8Q74.65-16.8 74.85-16.38 75.05-15.95 74.55-15.05L74.55-15.05 70.55-5.7Q69.7-3.85 69.7-2.55L69.7-2.55Q69.7-1.1 71.25-1.1ZM87.2-11.5L87.2-11.5Q88.95-13.6 88.95-15.05 88.95-16.5 87.75-16.5L87.75-16.5Q85.4-16.5 82.4-12.2L82.4-12.2Q81.45-10.85 80.55-8.65 79.65-6.45 79.65-4.67 79.65-2.9 80.37-1.8 81.1-0.7 82.62-0.7 84.15-0.7 85.45-1.43 86.75-2.15 87.92-3.73 89.1-5.3 89.7-6.35 90.3-7.4 91.35-9.5L91.35-9.5Q91.7-10.2 91.95-10.08 92.2-9.95 92.2-9.73 92.2-9.5 91.52-8.08 90.85-6.65 90.17-5.4 89.5-4.15 88.25-2.6L88.25-2.6Q86 0.2 82.1 0.2L82.1 0.2Q79.3 0.2 78.07-1.18 76.85-2.55 76.85-4.35L76.85-4.35Q76.85-6.55 77.92-9.15 79-11.75 80.4-13.65L80.4-13.65Q83.3-17.6 87.1-17.6L87.1-17.6Q88.95-17.6 89.77-16.73 90.6-15.85 90.6-14.7L90.6-14.7Q90.6-13 89.2-11.8L89.2-11.8Q88.5-11.15 88.02-11.15 87.55-11.15 87.2-11.5ZM99.89-2.25L99.89-2.25Q99.89-0.85 100.89-0.85L100.89-0.85Q103.24-0.85 107.54-9.65L107.54-9.65Q107.89-10.35 108.17-10.2 108.44-10.05 108.44-9.8 108.44-9.55 107.87-8.38 107.29-7.2 106.72-6.13 106.14-5.05 105.04-3.3L105.04-3.3Q102.74 0.2 100.14 0.2L100.14 0.2Q98.44 0.2 97.44-1.2L97.44-1.2Q96.99-1.85 96.99-2.98 96.99-4.1 97.49-5.7 97.99-7.3 100.24-10.9L100.24-10.9Q100.79-11.8 100.79-12.33 100.79-12.85 99.94-12.85 99.09-12.85 96.69-10.6L96.69-10.6Q93.09-7.3 89.69-0.7L89.69-0.7Q89.34 0.05 87.84 0.05L87.84 0.05Q86.49 0.15 86.14 0.35L86.14 0.35Q95.64-19.4 99.89-27.2L99.89-27.2Q100.84-28.95 101.57-29.65 102.29-30.35 103.29-30.35L103.29-30.35Q103.54-30.35 104.34-30.23 105.14-30.1 105.54-30.15L105.54-30.15Q104.04-28.6 100.17-21.58 96.29-14.55 92.74-7.3L92.74-7.3Q95.09-10.25 96.97-11.9 98.84-13.55 101.54-15.03 104.24-16.5 105.49-16.5L105.49-16.5Q105.79-16.5 106.04-16.4L106.04-16.4Q99.89-5.6 99.89-2.25ZM109.79-7.7L109.79-7.7Q109.09-6 109.09-3.9L109.09-3.9Q109.09-2.5 109.72-1.68 110.34-0.85 111.49-0.85L111.49-0.85Q116.04-0.85 119.74-9.4L119.74-9.4Q120.09-10.2 120.59-10.1L120.59-10.1Q120.79-10.05 120.79-9.85 120.79-9.65 119.67-7.23 118.54-4.8 117.39-3.3L117.39-3.3Q114.84 0.2 111.09 0.2L111.09 0.2Q109.09 0.2 107.69-1.1 106.29-2.4 106.29-4.65 106.29-6.9 107.37-9.43 108.44-11.95 110.29-14.13 112.14-16.3 114.54-17.3L114.54-17.3Q115.69-17.8 116.74-17.8 117.79-17.8 118.69-17.2L118.69-17.2Q119.54-16.5 119.54-15.65L119.54-15.65Q119.54-12.65 115.94-9.9L115.94-9.9Q114.84-9.05 112.84-8.38 110.84-7.7 109.79-7.7ZM118.19-15.7L118.19-15.7Q118.19-16.7 117.39-16.7L117.39-16.7Q115.99-16.7 113.14-13.25L113.14-13.25Q111.44-11.15 110.14-8.55L110.14-8.55Q110.99-8.55 112.62-9.15 114.24-9.75 115.44-10.75L115.44-10.75Q118.19-13.1 118.19-15.7ZM122.64-9.65Q122.59-9.45 122.19-8.28 121.79-7.1 121.51-6.03 121.24-4.95 121.24-3.88 121.24-2.8 121.74-1.88 122.24-0.95 123.34-0.95L123.34-0.95Q125.14-0.95 126.84-3.38 128.54-5.8 130.44-9.55L130.44-9.55Q130.84-10.25 131.19-10.1L131.19-10.1Q131.44-9.9 131.29-9.58 131.14-9.25 130.66-8.18 130.19-7.1 129.96-6.68 129.74-6.25 129.16-5.18 128.59-4.1 128.16-3.58 127.74-3.05 127.01-2.23 126.29-1.4 125.64-1L125.64-1Q123.89 0.1 122.34 0.1 120.79 0.1 119.94-0.58 119.09-1.25 118.91-2.02 118.74-2.8 118.74-3.4 118.74-4 118.79-4.95L118.79-4.95Q118.94-6.55 119.41-8.05 119.89-9.55 119.94-9.75L119.94-9.75Q121.09-13.9 123.21-18.8 125.34-23.7 126.81-26.18 128.29-28.65 129.14-29.55L129.14-29.55Q130.84-31.35 132.49-31.35L132.49-31.35Q133.64-31.35 134.04-29.7L134.04-29.7Q134.09-29.4 134.09-28.95L134.09-28.95Q134.09-27.25 132.89-24.65L132.89-24.65Q128.59-15.1 122.64-9.65L122.64-9.65ZM123.04-11.25Q125.59-13.85 128.09-17.8 130.59-21.75 131.76-24.53 132.94-27.3 132.94-28.3 132.94-29.3 132.59-29.3L132.59-29.3Q132.09-29.3 130.69-27.33 129.29-25.35 126.91-20.23 124.54-15.1 123.04-11.25L123.04-11.25ZM131.49-19.5L131.49-19.5Q131.49-19.8 131.89-19.95L131.89-19.95Q133.39-20.5 134.46-21.6 135.54-22.7 135.74-24.3L135.74-24.3Q134.99-23.8 134.21-23.8 133.44-23.8 132.99-24.35 132.54-24.9 132.54-25.3 132.54-25.7 132.64-26.23 132.74-26.75 133.44-27.35 134.14-27.95 135.06-27.95 135.99-27.95 136.51-27.13 137.04-26.3 137.04-25.2L137.04-25.2Q137.04-23 135.51-21.53 133.99-20.05 132.04-19.4L132.04-19.4Q131.89-19.35 131.69-19.35 131.49-19.35 131.49-19.5ZM142.63-0.95L142.63-0.95Q143.28-0.85 143.53-0.85L143.53-0.85Q145.53-0.85 147.48-3.2L147.48-3.2Q148.53-4.5 151.23-9.75L151.23-9.75Q151.33-10 151.58-10L151.58-10Q152.03-10.05 152.03-9.65L152.03-9.65Q152.03-9.55 151.81-9.08 151.58-8.6 151.38-8.13 151.18-7.65 150.73-6.75 150.28-5.85 149.96-5.3 149.63-4.75 149.13-3.95 148.63-3.15 148.13-2.7L148.13-2.7 147.08-1.6Q146.23-0.75 145.08-0.4L145.08-0.4Q143.23 0.2 141.48-0.3L141.48-0.3Q140.33 0.2 139.43 0.2L139.43 0.2Q135.88 0.2 135.13-2.6L135.13-2.6Q134.98-3.25 134.98-4.17 134.98-5.1 135.61-5.95 136.23-6.8 136.93-6.85L136.93-6.85Q139.48-11.7 141.28-15.6L141.28-15.6Q143.28-19.85 145.93-19.85L145.93-19.85Q146.63-19.85 147.31-19.53 147.98-19.2 147.81-18.8 147.63-18.4 147.08-18.65 146.53-18.9 146.13-18.9 145.73-18.9 145.43-18.75L145.43-18.75Q143.73-17.95 143.73-15.3L143.73-15.3Q143.73-13.9 144.13-13 144.53-12.1 145.03-11.05L145.03-11.05Q146.18-8.45 146.18-6.8L146.18-6.8Q146.18-5.15 145.13-3.55 144.08-1.95 142.63-0.95ZM140.93-1.3L140.93-1.3Q143.13-3 143.13-6.8L143.13-6.8Q143.13-8.35 142.78-11.05 142.43-13.75 142.43-14.7 142.43-15.65 142.48-16L142.48-16Q138.68-8.4 137.78-6.75L137.78-6.75Q138.83-6.75 138.83-5.25L138.83-5.25Q138.83-2.3 140.93-1.3ZM137.18-2.65L137.18-2.65Q137.18-2.35 137.23-2L137.23-2Q137.63-0.65 139.08-0.65L139.08-0.65Q139.68-0.65 140.08-0.85L140.08-0.85Q138.23-2 138.08-4.6L138.08-4.6Q137.18-3.7 137.18-2.65ZM209.48-35.25L209.48-35.25Q214.78-32.1 214.78-27.65L214.78-27.65Q214.78-24.15 210.88-20.15L210.88-20.15Q208.63-17.8 205.55-16.1 202.48-14.4 199.48-13.65L199.48-13.65Q194.28-12.4 190.08-12.4L190.08-12.4Q189.18-12.4 188.28-12.45L188.28-12.45Q184.63-7.1 180.78-3.35L180.78-3.35Q175.13 1.95 168.33 1.95L168.33 1.95Q161.83 1.95 160.33-1.6L160.33-1.6Q159.98-2.45 159.98-3.58 159.98-4.7 161.13-6L161.13-6Q162.93-8.05 166.18-8.05L166.18-8.05Q168.28-8.05 170.58-7.3L170.58-7.3Q171.43-7 171.18-6.65L171.18-6.65Q170.98-6.45 169.88-6.85 168.78-7.25 167.15-7.25 165.53-7.25 164.3-6.03 163.08-4.8 163.08-3.4L163.08-3.4Q163.08-2.85 163.28-2.3L163.28-2.3Q164.08 0.4 167.83 0.4L167.83 0.4Q173.43 0.4 178.83-4.8L178.83-4.8Q182.68-8.55 187.48-18.3L187.48-18.3Q189.33-21.95 192.08-26.43 194.83-30.9 197.68-34.1L197.68-34.1Q198.03-34.45 198.58-35L198.58-35Q199.63-36.2 200.33-36.9L200.33-36.9Q196.73-37.4 192.63-37.4 188.53-37.4 184.88-36.73 181.23-36.05 178.53-35.13 175.83-34.2 173.05-32.73 170.28-31.25 168.38-29L168.38-29Q165.88-26.15 165.88-23.05L165.88-23.05Q165.88-21.15 167.23-19.5L167.23-19.5Q168.68-17.75 170.95-17.75 173.23-17.75 175.35-19.5 177.48-21.25 178.38-23.8L178.38-23.8Q178.43-24.15 178.6-24.28 178.78-24.4 178.93-24.25 179.08-24.1 179.08-23.75L179.08-23.75Q179.03-20.5 176.55-18.63 174.08-16.75 171.08-16.75L171.08-16.75Q167.68-16.75 165.53-18.75 163.38-20.75 163.38-23.9L163.38-23.9Q163.38-26.8 164.93-29.13 166.48-31.45 168.63-32.9 170.78-34.35 173.58-35.5L173.58-35.5Q178.33-37.4 183.55-38.18 188.78-38.95 193.3-38.95 197.83-38.95 201.68-38.15L201.68-38.15Q203.48-39.55 204.83-40.05 206.18-40.55 206.35-40.55 206.53-40.55 206.58-40.5L206.58-40.5Q206.88-40.5 206.7-40.18 206.53-39.85 205.55-39.2 204.58-38.55 203.68-37.65L203.68-37.65Q206.88-36.8 209.48-35.25ZM189.68-13.5L189.68-13.5Q193.33-13.5 197.6-14.78 201.88-16.05 205.18-18.5L205.18-18.5Q211.58-23.35 211.58-28.5L211.58-28.5Q211.58-34.35 202.73-36.45L202.73-36.45Q199.93-32.55 195.48-24.6 191.03-16.65 188.98-13.5L188.98-13.5Q189.33-13.5 189.68-13.5ZM217.53-2.25L217.53-2.25Q217.53-0.85 218.53-0.85L218.53-0.85Q220.88-0.85 225.18-9.65L225.18-9.65Q225.53-10.35 225.8-10.2 226.08-10.05 226.08-9.8 226.08-9.55 225.5-8.38 224.93-7.2 224.35-6.13 223.78-5.05 222.68-3.3L222.68-3.3Q220.38 0.2 217.78 0.2L217.78 0.2Q216.08 0.2 215.08-1.2L215.08-1.2Q214.63-1.85 214.63-2.98 214.63-4.1 215.13-5.7 215.63-7.3 217.88-10.9L217.88-10.9Q218.43-11.8 218.43-12.33 218.43-12.85 217.58-12.85 216.73-12.85 214.33-10.6L214.33-10.6Q210.73-7.3 207.33-0.7L207.33-0.7Q206.98 0.05 205.48 0.05L205.48 0.05Q204.13 0.15 203.78 0.35L203.78 0.35Q213.28-19.4 217.53-27.2L217.53-27.2Q218.48-28.95 219.2-29.65 219.93-30.35 220.93-30.35L220.93-30.35Q221.18-30.35 221.98-30.23 222.78-30.1 223.18-30.15L223.18-30.15Q221.68-28.6 217.8-21.58 213.93-14.55 210.38-7.3L210.38-7.3Q212.73-10.25 214.6-11.9 216.48-13.55 219.18-15.03 221.88-16.5 223.13-16.5L223.13-16.5Q223.43-16.5 223.68-16.4L223.68-16.4Q217.53-5.6 217.53-2.25ZM218.27 15.8L218.27 15.8Q216.07 15.8 214.87 14.88 213.67 13.95 213.67 12.65 213.67 11.35 214.42 9.7L214.42 9.7Q215.72 7.15 219.12 5.6L219.12 5.6Q221.67 4.4 225.87 3.38 230.07 2.35 231.27 2L231.27 2Q233.07-1.15 235.57-9.25L235.57-9.25Q232.67-4.15 230.72-2.1 228.77-0.05 226.77-0.05L226.77-0.05Q224.07-0.05 223.62-2.3L223.62-2.3Q223.42-2.65 223.52-3.35 223.62-4.05 223.65-4.35 223.67-4.65 223.97-5.33 224.27-6 224.37-6.3L224.37-6.3Q224.92-7.45 225.32-8.1L225.32-8.1Q224.52-8.1 224.87-8.9L224.87-8.9 225.77-10.65Q227.47-13.9 228.57-16.15L228.57-16.15Q229.07-17.2 230.52-17.2L230.52-17.2 233.57-17.2Q233.47-17.1 233.07-16.8L233.07-16.8Q232.17-16.2 231.72-15.4L231.72-15.4Q229.92-12.3 227.22-6.55L227.22-6.55Q226.12-4.2 226.12-3.1 226.12-2 226.5-1.55 226.87-1.1 227.52-1.1L227.52-1.1Q228.47-1.1 230.17-3.1L230.17-3.1Q233.72-7.25 238.02-16.15L238.02-16.15Q238.57-17.2 239.97-17.2L239.97-17.2 242.67-17.2Q241.37-16.3 240.62-14.93 239.87-13.55 239-11.2 238.12-8.85 236.8-4.95 235.47-1.05 234.77 0.9L234.77 0.9Q239.47-0.5 241.97-4.05L241.97-4.05Q243.07-5.6 245.12-9.55L245.12-9.55Q245.47-10.25 245.75-10.1 246.02-9.95 246.02-9.7 246.02-9.45 245.2-7.78 244.37-6.1 243.52-4.67 242.67-3.25 241.32-1.75 239.97-0.25 238.32 0.63 236.67 1.5 233.92 2.5L233.92 2.5Q230.07 9.5 226.17 12.8L226.17 12.8Q222.52 15.8 218.27 15.8ZM215.37 10.85L215.37 10.85Q214.82 11.95 214.82 12.88 214.82 13.8 215.52 14.3 216.22 14.8 217.27 14.8L217.27 14.8Q220.17 14.8 223.47 11.83 226.77 8.85 229.27 5.45L229.27 5.45 230.37 3.6Q222.12 5.75 219.97 6.7L219.97 6.7Q216.77 8.1 215.37 10.85ZM249.42-0.95L249.42-0.95Q250.07-0.85 250.32-0.85L250.32-0.85Q252.32-0.85 254.27-3.2L254.27-3.2Q255.32-4.5 258.02-9.75L258.02-9.75Q258.12-10 258.37-10L258.37-10Q258.82-10.05 258.82-9.65L258.82-9.65Q258.82-9.55 258.6-9.08 258.37-8.6 258.17-8.13 257.97-7.65 257.52-6.75 257.07-5.85 256.75-5.3 256.42-4.75 255.92-3.95 255.42-3.15 254.92-2.7L254.92-2.7 253.87-1.6Q253.02-0.75 251.87-0.4L251.87-0.4Q250.02 0.2 248.27-0.3L248.27-0.3Q247.12 0.2 246.22 0.2L246.22 0.2Q242.67 0.2 241.92-2.6L241.92-2.6Q241.77-3.25 241.77-4.17 241.77-5.1 242.4-5.95 243.02-6.8 243.72-6.85L243.72-6.85Q246.27-11.7 248.07-15.6L248.07-15.6Q250.07-19.85 252.72-19.85L252.72-19.85Q253.42-19.85 254.1-19.53 254.77-19.2 254.6-18.8 254.42-18.4 253.87-18.65 253.32-18.9 252.92-18.9 252.52-18.9 252.22-18.75L252.22-18.75Q250.52-17.95 250.52-15.3L250.52-15.3Q250.52-13.9 250.92-13 251.32-12.1 251.82-11.05L251.82-11.05Q252.97-8.45 252.97-6.8L252.97-6.8Q252.97-5.15 251.92-3.55 250.87-1.95 249.42-0.95ZM247.72-1.3L247.72-1.3Q249.92-3 249.92-6.8L249.92-6.8Q249.92-8.35 249.57-11.05 249.22-13.75 249.22-14.7 249.22-15.65 249.27-16L249.27-16Q245.47-8.4 244.57-6.75L244.57-6.75Q245.62-6.75 245.62-5.25L245.62-5.25Q245.62-2.3 247.72-1.3ZM243.97-2.65L243.97-2.65Q243.97-2.35 244.02-2L244.02-2Q244.42-0.65 245.87-0.65L245.87-0.65Q246.47-0.65 246.87-0.85L246.87-0.85Q245.02-2 244.87-4.6L244.87-4.6Q243.97-3.7 243.97-2.65ZM264.82-19.45Q264.12-18.85 263.27-18.85 262.42-18.85 261.92-19.45 261.42-20.05 261.52-20.9L261.52-20.9Q261.67-21.75 262.37-22.35 263.07-22.95 263.92-22.95 264.77-22.95 265.29-22.35 265.82-21.75 265.67-20.9 265.52-20.05 264.82-19.45ZM259.92-1.1L259.92-1.1Q260.87-1.1 261.92-2.05L261.92-2.05Q263.77-3.9 266.62-9.6L266.62-9.6Q266.97-10.35 267.32-10.05L267.32-10.05Q267.42-9.95 267.42-9.73 267.42-9.5 267.02-8.63 266.62-7.75 266.29-7.05 265.97-6.35 265.04-4.78 264.12-3.2 263.37-2.35L263.37-2.35Q261.32 0 259.49 0 257.67 0 256.87-1.1 256.07-2.2 256.07-3.55 256.07-4.9 256.72-6.5L256.72-6.5 259.92-14.65Q260.02-14.95 260.02-15.45 260.02-15.95 259.42-16.75L259.42-16.75 262.17-16.8Q263.32-16.8 263.52-16.38 263.72-15.95 263.22-15.05L263.22-15.05 259.22-5.7Q258.37-3.85 258.37-2.55L258.37-2.55Q258.37-1.1 259.92-1.1ZM275.77-17.5L275.77-17.5Q279.42-17.5 279.42-12.9L279.42-12.9Q279.42-10.8 278.32-8.4L278.32-8.4Q276.92-5.15 274.12-2.5L274.12-2.5Q274.77-1.25 276.47-1.25L276.47-1.25Q277.82-1.25 279.02-2.6L279.02-2.6Q280.52-4.15 281.17-5.33 281.82-6.5 282.12-7.05 282.42-7.6 282.89-8.63 283.37-9.65 283.47-9.88 283.57-10.1 283.82-10.1L283.82-10.1Q284.32-10.15 284.32-9.75L284.32-9.75Q284.32-9.6 284.22-9.4L284.22-9.4 283.92-8.7Q283.62-8 283.47-7.7 283.32-7.4 282.94-6.63 282.57-5.85 282.29-5.4 282.02-4.95 281.54-4.2 281.07-3.45 280.69-3 280.32-2.55 279.77-2 279.22-1.45 278.72-1.15L278.72-1.15Q277.47-0.4 276.37-0.4L276.37-0.4Q274.32-0.4 273.17-1.7L273.17-1.7Q270.87 0 268.92 0L268.92 0Q265.27 0 265.27-4.6L265.27-4.6Q265.27-6.7 266.37-9.1L266.37-9.1Q267.87-12.6 270.59-15.05 273.32-17.5 275.77-17.5ZM276.32-15.95L276.32-15.95Q274.97-15.95 273.12-14.15 271.27-12.35 269.82-9.25L269.82-9.25Q268.07-5.65 268.07-3.35 268.07-1.05 269.82-1.05L269.82-1.05Q271.07-1.05 272.62-2.4L272.62-2.4Q271.82-3.55 271.82-4.85L271.82-4.85Q271.92-7 273.57-7L273.57-7Q274.22-7 274.64-6.55 275.07-6.1 275.07-5.73 275.07-5.35 274.97-4.95L274.97-4.95Q275.82-6.2 276.92-8.5L276.92-8.5Q278.17-11.05 278.17-13.5 278.17-15.95 276.32-15.95ZM282.16-4L282.16-4Q282.16-8.15 286.16-17.9L286.16-17.9 283.56-17.9Q283.31-17.9 283.24-18.18 283.16-18.45 283.29-18.73 283.41-19 283.66-19L283.66-19 286.66-19Q288.46-22.95 290.01-25.6 291.56-28.25 292.86-29.18 294.16-30.1 294.74-30.1 295.31-30.1 295.56-30L295.56-30Q296.71-29.45 296.71-27.73 296.71-26 295.56-23.55 294.41-21.1 293.31-19L293.31-19 295.71-19Q295.96-19 296.04-18.73 296.11-18.45 295.99-18.18 295.86-17.9 295.61-17.9L295.61-17.9 292.71-17.9Q289.96-13.25 286.06-9.65L286.06-9.65 284.91-4.55Q284.76-3.9 284.76-3.28 284.76-2.65 285.11-2 285.46-1.35 286.21-1.35L286.21-1.35Q287.06-1.35 288.11-1.95L288.11-1.95Q290.51-3.75 293.41-9.5L293.41-9.5Q293.61-9.95 293.89-10.05 294.16-10.15 294.21-9.93 294.26-9.7 294.06-9.2L294.06-9.2Q292.41-5.75 291.46-4.3L291.46-4.3Q288.76 0.05 285.71 0.05L285.71 0.05Q284.16 0.05 283.16-1.1 282.16-2.25 282.16-4ZM289.71-19L292.21-19Q295.51-24.9 295.51-27.2L295.51-27.2Q295.51-28.2 295.16-28.2L295.16-28.2Q294.61-28.2 293.49-26.6 292.36-25 289.71-19L289.71-19ZM291.56-17.9L291.56-17.9 289.21-17.9Q288.61-16.5 286.51-11.25L286.51-11.25Q289.21-14.05 291.56-17.9ZM302.31-2.25L302.31-2.25Q302.31-0.85 303.31-0.85L303.31-0.85Q305.66-0.85 309.96-9.65L309.96-9.65Q310.31-10.35 310.59-10.2 310.86-10.05 310.86-9.8 310.86-9.55 310.29-8.38 309.71-7.2 309.14-6.13 308.56-5.05 307.46-3.3L307.46-3.3Q305.16 0.2 302.56 0.2L302.56 0.2Q300.86 0.2 299.86-1.2L299.86-1.2Q299.41-1.85 299.41-2.98 299.41-4.1 299.91-5.7 300.41-7.3 302.66-10.9L302.66-10.9Q303.21-11.8 303.21-12.33 303.21-12.85 302.36-12.85 301.51-12.85 299.11-10.6L299.11-10.6Q295.51-7.3 292.11-0.7L292.11-0.7Q291.76 0.05 290.26 0.05L290.26 0.05Q288.91 0.15 288.56 0.35L288.56 0.35Q298.06-19.4 302.31-27.2L302.31-27.2Q303.26-28.95 303.99-29.65 304.71-30.35 305.71-30.35L305.71-30.35Q305.96-30.35 306.76-30.23 307.56-30.1 307.96-30.15L307.96-30.15Q306.46-28.6 302.59-21.58 298.71-14.55 295.16-7.3L295.16-7.3Q297.51-10.25 299.39-11.9 301.26-13.55 303.96-15.03 306.66-16.5 307.91-16.5L307.91-16.5Q308.21-16.5 308.46-16.4L308.46-16.4Q302.31-5.6 302.31-2.25ZM312.21-7.7L312.21-7.7Q311.51-6 311.51-3.9L311.51-3.9Q311.51-2.5 312.13-1.68 312.76-0.85 313.91-0.85L313.91-0.85Q318.46-0.85 322.16-9.4L322.16-9.4Q322.51-10.2 323.01-10.1L323.01-10.1Q323.21-10.05 323.21-9.85 323.21-9.65 322.08-7.23 320.96-4.8 319.81-3.3L319.81-3.3Q317.26 0.2 313.51 0.2L313.51 0.2Q311.51 0.2 310.11-1.1 308.71-2.4 308.71-4.65 308.71-6.9 309.78-9.43 310.86-11.95 312.71-14.13 314.56-16.3 316.96-17.3L316.96-17.3Q318.11-17.8 319.16-17.8 320.21-17.8 321.11-17.2L321.11-17.2Q321.96-16.5 321.96-15.65L321.96-15.65Q321.96-12.65 318.36-9.9L318.36-9.9Q317.26-9.05 315.26-8.38 313.26-7.7 312.21-7.7ZM320.61-15.7L320.61-15.7Q320.61-16.7 319.81-16.7L319.81-16.7Q318.41-16.7 315.56-13.25L315.56-13.25Q313.86-11.15 312.56-8.55L312.56-8.55Q313.41-8.55 315.03-9.15 316.66-9.75 317.86-10.75L317.86-10.75Q320.61-13.1 320.61-15.7ZM329.01-20.05L329.01-20.05Q329.01-17.8 326.16-15.8L326.16-15.8Q327.16-15.75 328.83-15.75 330.51-15.75 333.06-16L333.06-16Q333.16-15.85 333.16-15.2 333.16-14.55 332.56-13.28 331.96-12 331.48-11.08 331.01-10.15 330.58-9.33 330.16-8.5 329.63-7.3 329.11-6.1 328.76-5.1L328.76-5.1Q327.51-1.3 329.16-1.3L329.16-1.3Q331.26-1.3 335.36-9.65L335.36-9.65Q335.71-10.3 335.93-10.15 336.16-10 336.16-9.78 336.16-9.55 335.51-8.22 334.86-6.9 334.11-5.5 333.36-4.1 331.76-2.25L331.76-2.25Q329.86 0.05 328.11 0.05L328.11 0.05Q326.16 0.05 325.41-2.3L325.41-2.3Q325.26-2.75 325.26-3.65 325.26-4.55 325.83-6.05 326.41-7.55 327.66-9.7 328.91-11.85 329.06-12.23 329.21-12.6 329.21-12.95L329.21-12.95Q329.21-14.5 325.21-14.6L325.21-14.6 324.61-13Q321.46-4.75 318.56-1.95L318.56-1.95Q318.06-1.5 318.06-2.25L318.06-2.25Q318.06-2.4 318.16-2.6L318.16-2.6Q320.96-6.3 323.01-11.35 325.06-16.4 325.86-20.95L325.86-20.95Q326.16-22.5 327.26-22.5 328.36-22.5 328.86-21.1L328.86-21.1Q329.01-20.65 329.01-20.05ZM350.5-13.55Q349.6-12.65 347.95-9.47 346.3-6.3 345.98-4.73 345.65-3.15 345.65-2.18 345.65-1.2 346.4-1.2L346.4-1.2Q347.35-1.2 348.75-2.95L348.75-2.95Q350.8-5.5 352.8-9.6L352.8-9.6Q353-10.05 353.25-10.1L353.25-10.1Q353.65-10.25 353.65-9.8L353.65-9.8Q353.65-9.55 353.5-9.2L353.5-9.2Q348.9 0.1 345.75 0.1L345.75 0.1Q344.3 0.1 343.4-1.3L343.4-1.3Q342.95-2.05 342.95-3.3 342.95-4.55 343.45-6.35L343.45-6.35Q339.45 0.1 336.55 0.1L336.55 0.1Q335.75 0.1 335.1-0.4L335.1-0.4Q333.6-1.45 333.6-4L333.6-4Q333.6-8.9 337.85-13.95L337.85-13.95Q340.25-16.75 343.75-17.6L343.75-17.6Q344.7-17.85 345.55-17.85L345.55-17.85Q347.85-17.85 349.45-16.25L349.45-16.25Q349.95-15.7 349.75-15.2 349.55-14.7 348.9-14.8L348.9-14.8Q348.35-16.6 346.5-16.6L346.5-16.6Q344.35-16.6 341.2-13.2L341.2-13.2Q339.4-11.2 337.85-8.5L337.85-8.5Q335.9-5.25 335.9-3.3 335.9-1.35 337.15-1.35L337.15-1.35Q340.15-1.35 345-10.55L345-10.55Q345.95-12.4 346.6-13.08 347.25-13.75 348.25-13.75L348.25-13.75Q348.45-13.75 349.28-13.6 350.1-13.45 350.5-13.55L350.5-13.55ZM367.8-13.6L367.8-13.6Q367.8-11.4 366.65-8.75 365.5-6.1 363.48-3.65 361.45-1.2 358.55-0.3L358.55-0.3Q357.45 0 356.03 0 354.6 0 352.9-0.9L352.9-0.9 348.15 10.95Q347.4 12.55 346.75 13.05 346.1 13.55 345.5 13.55 344.9 13.55 344.78 13.55 344.65 13.55 343.88 13.4 343.1 13.25 342.7 13.3L342.7 13.3Q343.8 12.25 348.28 3.33 352.75-5.6 353.35-8.7L353.35-8.7Q352.8-7.9 352.3-7.85L352.3-7.85Q352-7.85 352.3-8.43 352.6-9 353.3-10.65L353.3-10.65Q354.2-12.8 354.2-14.63 354.2-16.45 353.5-16.75L353.5-16.75Q356.5-17.25 357-17.23 357.5-17.2 357.63-16.8 357.75-16.4 357.75-15.9L357.75-15.9Q357.75-12.85 356.35-9.1L356.35-9.1 357.35-10.7Q359.15-13.6 359.98-14.45 360.8-15.3 361.75-16.2L361.75-16.2Q363.2-17.6 364.55-17.6L364.55-17.6Q364.95-17.6 365.3-17.5L365.3-17.5Q367.8-16.85 367.8-13.6ZM365.4-14.1L365.4-14.1Q365.4-14.9 365.08-15.58 364.75-16.25 364.05-16.25L364.05-16.25Q362.3-16.25 359.98-13 357.65-9.75 353.3-1.65L353.3-1.65Q353.95-1 355.1-1 356.25-1 358.35-2.75L358.35-2.75Q361.7-5.55 363.95-9.7L363.95-9.7Q365.4-12.4 365.4-14.1ZM376.45-19.45Q375.75-18.85 374.9-18.85 374.05-18.85 373.55-19.45 373.05-20.05 373.15-20.9L373.15-20.9Q373.3-21.75 374-22.35 374.7-22.95 375.55-22.95 376.4-22.95 376.92-22.35 377.45-21.75 377.3-20.9 377.15-20.05 376.45-19.45ZM371.55-1.1L371.55-1.1Q372.5-1.1 373.55-2.05L373.55-2.05Q375.4-3.9 378.25-9.6L378.25-9.6Q378.6-10.35 378.95-10.05L378.95-10.05Q379.05-9.95 379.05-9.73 379.05-9.5 378.65-8.63 378.25-7.75 377.92-7.05 377.6-6.35 376.67-4.78 375.75-3.2 375-2.35L375-2.35Q372.95 0 371.12 0 369.3 0 368.5-1.1 367.7-2.2 367.7-3.55 367.7-4.9 368.35-6.5L368.35-6.5 371.55-14.65Q371.65-14.95 371.65-15.45 371.65-15.95 371.05-16.75L371.05-16.75 373.8-16.8Q374.95-16.8 375.15-16.38 375.35-15.95 374.85-15.05L374.85-15.05 370.85-5.7Q370-3.85 370-2.55L370-2.55Q370-1.1 371.55-1.1ZM380.5-7.7L380.5-7.7Q379.8-6 379.8-3.9L379.8-3.9Q379.8-2.5 380.42-1.68 381.05-0.85 382.2-0.85L382.2-0.85Q386.75-0.85 390.45-9.4L390.45-9.4Q390.8-10.2 391.3-10.1L391.3-10.1Q391.5-10.05 391.5-9.85 391.5-9.65 390.37-7.23 389.25-4.8 388.1-3.3L388.1-3.3Q385.55 0.2 381.8 0.2L381.8 0.2Q379.8 0.2 378.4-1.1 377-2.4 377-4.65 377-6.9 378.07-9.43 379.15-11.95 381-14.13 382.85-16.3 385.25-17.3L385.25-17.3Q386.4-17.8 387.45-17.8 388.5-17.8 389.4-17.2L389.4-17.2Q390.25-16.5 390.25-15.65L390.25-15.65Q390.25-12.65 386.65-9.9L386.65-9.9Q385.55-9.05 383.55-8.38 381.55-7.7 380.5-7.7ZM388.9-15.7L388.9-15.7Q388.9-16.7 388.1-16.7L388.1-16.7Q386.7-16.7 383.85-13.25L383.85-13.25Q382.15-11.15 380.85-8.55L380.85-8.55Q381.7-8.55 383.32-9.15 384.95-9.75 386.15-10.75L386.15-10.75Q388.9-13.1 388.9-15.7Z" opacity="1" transform="matrix(1,0,0,1,0,0)" fill="#000000" class="wordmark-text-0" data-fill-palette-color="primary" id="text-0"></path></svg></g></svg></g></svg></g></svg></g><g></g></svg></g></svg></g></svg></g><g mask="url(#e8d9b6f8-ca3d-4ee6-9e1a-237370c10fe0)"><g transform="matrix(2.715253102038016, 0, 0, 2.715253102038016, 75.1594924644394, 1.0000000000000142)"><svg xmlns="http://www.w3.org/2000/svg" xmlns:xlink="http://www.w3.org/1999/xlink" version="1.0" x="0" y="0" viewBox="4.667734146118164 4.6859588623046875 90.3050308227539 90.30465698242188" enable-background="new 0 0 100 100" xml:space="preserve" height="90.30465698242188" width="90.3050308227539" class="icon-none" data-fill-palette-color="accent" id="none"><path d="M17.504 35.743c-1.334 8.611 0.522 17.134 5.093 23.382 3.514 4.801 8.413 7.905 13.796 8.739 5.677 0.88 11.253-0.429 15.703-3.685 1.248-0.912 2.36-1.946 3.326-3.076-2.222 0.978-4.814 1.267-7.626 0.831-11.717-1.816-19.673-13.464-17.735-25.964 0.934-6.03 4.384-11.497 9.713-15.397 6.768-4.952 15.953-6.97 25.201-5.537 7.474 1.158 17.67 5.964 25.56 15.213 0 0-22.835-39.421-56.115-20.356C23.689 16.04 18.653 28.323 17.504 35.743z" fill="#000000" data-fill-palette-color="accent"></path><path d="M82.544 65.256c1.659-8.555 0.125-17.141-4.207-23.557-3.331-4.931-8.109-8.217-13.457-9.253-5.639-1.094-11.261 0.004-15.83 3.091-1.282 0.863-2.431 1.854-3.44 2.947 2.257-0.894 4.859-1.084 7.652-0.543 11.64 2.257 19.151 14.196 16.744 26.616-1.161 5.989-4.815 11.324-10.288 15.019-6.949 4.692-16.205 6.364-25.393 4.582C26.902 82.719 16.894 77.532 9.358 67.992c0 0 21.331 40.255 55.307 22.457C75.621 84.712 81.115 72.628 82.544 65.256z" fill="#000000" data-fill-palette-color="accent"></path><path d="M35.726 82.88c8.611 1.334 17.133-0.522 23.381-5.094 4.801-3.514 7.905-8.413 8.74-13.796 0.879-5.676-0.429-11.253-3.686-15.702-0.912-1.248-1.946-2.36-3.076-3.327 0.979 2.222 1.267 4.815 0.831 7.626-1.816 11.717-13.463 19.673-25.965 17.736-6.029-0.934-11.497-4.385-15.395-9.713-4.952-6.768-6.971-15.954-5.538-25.202 1.158-7.474 5.964-17.67 15.213-25.559 0 0-39.421 22.835-20.356 56.115C16.022 76.695 28.305 81.73 35.726 82.88z" fill="#000000" data-fill-palette-color="accent"></path><path d="M90.432 35.718c-5.738-10.955-17.822-16.45-25.194-17.879-8.554-1.659-17.141-0.125-23.557 4.208-4.931 3.331-8.217 8.108-9.254 13.456-1.094 5.64 0.004 11.261 3.092 15.83 0.863 1.282 1.854 2.431 2.946 3.441-0.894-2.257-1.084-4.859-0.542-7.652 2.257-11.64 14.196-19.151 26.615-16.744 5.99 1.161 11.324 4.816 15.019 10.289 4.693 6.949 6.363 16.204 4.583 25.392-1.44 7.423-6.626 17.431-16.167 24.966C67.973 91.025 108.228 69.694 90.432 35.718z" fill="#000000" data-fill-palette-color="accent"></path></svg></g></g></svg></g><defs></defs></svg><rect width="395.52" height="247.2" fill="none" stroke="none" visibility="hidden"></rect></g></svg></g></svg>